<?xml version="1.0" encoding="UTF-8" standalone="no"?>
<!DOCTYPE svg PUBLIC "-//W3C//DTD SVG 1.1//EN" "http://www.w3.org/Graphics/SVG/1.1/DTD/svg11.dtd">
<svg width="100%" height="100%" viewBox="0 0 2500 2128" version="1.1" xmlns="http://www.w3.org/2000/svg" xmlns:xlink="http://www.w3.org/1999/xlink" xml:space="preserve" xmlns:serif="http://www.serif.com/" style="fill-rule:evenodd;clip-rule:evenodd;stroke-linejoin:round;stroke-miterlimit:2;">
    <g transform="matrix(83.680692,0,0,83.680692,-88.891074,-276.146284)">
        <path d="M2,17.55L9.97,14.33C10.779,13.261 11.69,12.273 12.69,11.38C13.35,11.03 14.59,11.22 16.86,8.4C19.06,5.65 19.76,3.3 20.79,3.3C22.42,3.3 23.62,6.82 25.44,12.15C26.738,16.221 28.26,20.217 30,24.12C28.1,22.35 26.48,20.44 24.63,20.49C22.91,20.53 21,22.57 18.91,25.19C17.25,27.29 15.05,28.73 14.19,28.7C14.19,28.7 11.97,22.42 10.11,21.4C9.328,21.08 8.438,21.155 7.72,21.6L2,17.54L2,17.55Z" style="fill:rgb(68,153,221);fill-rule:nonzero;"/>
    </g>
    <g transform="matrix(83.680692,0,0,83.680692,-88.891074,-276.146284)">
        <path d="M19.8,4.02C19.13,4.92 18.32,6.57 16.86,8.4C14.59,11.22 13.36,11.03 12.69,11.38C11.685,12.268 10.774,13.257 9.97,14.33L13.27,16.74C16.07,12.92 17.57,8.78 18.74,6.1C19.033,5.378 19.388,4.682 19.8,4.02Z" style="fill:rgb(56,131,184);fill-rule:nonzero;"/>
    </g>
    <g transform="matrix(83.680692,0,0,83.680692,-88.891074,-276.146284)">
        <path d="M20.8,3.3C18.62,3.3 17.13,14.78 9.08,21.19C11.34,20.82 13.3,26.43 14.2,28.7C18.2,28.02 21.4,20.37 24.63,20.49C26.48,20.56 28.1,22.35 30,24.12C25.66,15 23.63,3.3 20.8,3.3Z" style="fill:rgb(228,91,59);fill-rule:nonzero;"/>
    </g>
</svg>
