<?xml version="1.0" encoding="UTF-8" standalone="no"?>
<!DOCTYPE svg PUBLIC "-//W3C//DTD SVG 1.1//EN" "http://www.w3.org/Graphics/SVG/1.1/DTD/svg11.dtd">
<svg width="100%" height="100%" viewBox="0 0 42 49" version="1.1" xmlns="http://www.w3.org/2000/svg" xmlns:xlink="http://www.w3.org/1999/xlink" xml:space="preserve" xmlns:serif="http://www.serif.com/" style="fill-rule:evenodd;clip-rule:evenodd;stroke-linejoin:round;stroke-miterlimit:2;">
    <path d="M11.23,24.321L14.753,26.343L14.753,21.778L24.338,16.172L20.873,14.033L11.23,19.697L11.23,24.321Z" style="fill:rgb(59,69,80);fill-rule:nonzero;"/>
    <path d="M20.873,0.972L28.842,5.595L7.881,18.021L7.881,28.713L0.259,24.263L0.259,12.993L20.873,0.972Z" style="fill:rgb(100,188,79);fill-rule:nonzero;"/>
    <path d="M26.417,17.386L22.895,19.408L26.936,21.778L26.879,32.586L30.401,30.563L30.401,19.697L26.417,17.386Z" style="fill:rgb(59,69,80);fill-rule:nonzero;"/>
    <path d="M41.661,36.862L33.693,41.601L33.693,17.848L24.049,12.184L32.133,7.502L41.661,13.051L41.661,36.862Z" style="fill:rgb(100,188,79);fill-rule:nonzero;"/>
    <path d="M24.858,33.857L24.858,29.927L20.816,32.297L11.23,26.69L11.23,30.62L20.873,36.227L24.858,33.857Z" style="fill:rgb(59,69,80);fill-rule:nonzero;"/>
    <path d="M0.259,37.035L0.259,28.251L20.873,40.041L30.343,34.377L30.401,43.509L21.105,48.999L0.259,37.035Z" style="fill:rgb(100,188,79);fill-rule:nonzero;"/>
</svg>
