<?xml version="1.0" encoding="UTF-8" standalone="no"?><!DOCTYPE svg PUBLIC "-//W3C//DTD SVG 1.1//EN" "http://www.w3.org/Graphics/SVG/1.1/DTD/svg11.dtd"><svg width="100%" height="100%" viewBox="0 0 480 480" version="1.1" xmlns="http://www.w3.org/2000/svg" xmlns:xlink="http://www.w3.org/1999/xlink" xml:space="preserve" xmlns:serif="http://www.serif.com/" style="fill-rule:evenodd;clip-rule:evenodd;stroke-linejoin:round;stroke-miterlimit:2;"><g id="Background"><path d="M1.5,0l478.499,0c1.115,1.612 -0,1.844 -0,24.5l0,455.499c-1.496,1.266 -1.809,0 -24.499,0l-455.5,0c-1.399,-1.654 0,-4.333 0,-6.499l0,-473.5c0.132,-0.482 1.368,0.482 1.5,0Z" style="fill:#fcfdfc;"/><path d="M249.501,3.969c3.622,-0.007 52.642,0.208 58.006,0.307c5.7,0.105 4.39,4.7 4.382,10.225c-0.2,130.382 0.94,131.284 -1.451,132.886c-1.402,0.939 -138.145,0.408 -139.928,0.057c-2.719,-0.534 -2.486,-2.031 -2.422,-113.945c0.015,-26.705 -0.797,-28.657 3.396,-29.153c1.936,-0.229 71.775,-0.365 78.017,-0.377Z" style="fill:#f6955b;"/><path d="M230.5,312.034c-22.457,-0.327 -57.939,0.351 -60.806,-0.941c-2.017,-0.909 -1.718,-32.623 -1.655,-72.594c0.107,-68.431 0.22,-68.71 1.196,-69.411c1.879,-1.351 139.251,-1.063 141.097,-0.233c1.723,0.774 1.501,1.547 1.565,114.645c0.014,25.39 0.87,27.207 -3.404,27.957c-6.146,1.079 -6.184,0.492 -77.993,0.578Z" style="fill:#a9d04c;"/><path d="M106.498,148.034c-97.505,-0.602 -101.242,2.255 -101.398,-3.496c-0.119,-4.39 -0.778,-138.21 0.164,-139.241c1.028,-1.127 1.341,-1.062 69.235,-1.197c66.262,-0.132 66.337,-0.679 71.945,0.616c2.234,0.516 1.763,1.747 1.892,106.783c0.042,34.179 -0.064,34.411 -1.253,35.579c-1.612,1.583 -27.351,0.476 -40.585,0.955Z" style="fill:#f16448;"/><path d="M311.892,469.5c-0.06,0.9 1.511,6.078 -5.388,6.162c-10.719,0.13 -85.978,1.045 -133.997,-0.383c-6.045,-0.18 -4.3,-2.789 -4.302,-8.78c-0.005,-10.481 -0.057,-126.766 -0.003,-131.01c0.049,-3.901 2.305,-3.336 48.299,-3.297c93.356,0.078 94.684,-0.23 95.236,2.258c0.099,0.444 0.077,5.121 0.114,67.05c0.014,22.667 0.027,45.333 0.041,68Z" style="fill:#62c4ee;"/><path d="M331.922,144.476c-0.155,-10.874 -0.23,-10.855 -0.259,-116.976c-0.006,-20.214 -1.383,-23.198 4.838,-23.274c1.786,-0.022 133.107,0.028 134.005,0.05c6.227,0.15 4.681,5.508 4.681,17.224c-0,122.419 0.015,122.424 -0.058,122.926c-0.91,6.299 -4.554,2.891 -121.627,3.355c-18.918,0.075 -20.795,1.197 -21.58,-3.306Z" style="fill:#fbb86c;"/><path d="M4.964,467.494c-0.113,-14 -0.094,-13.978 -0.114,-73.995c-0.02,-59.224 -0.218,-59.559 0.962,-60.673c1.435,-1.356 140.364,-0.567 140.729,-0.452c2.22,0.696 1.752,1.778 1.71,90.126c-0.024,50.894 0.427,51.751 -1.844,52.728c-2.45,1.054 -130.74,0.534 -138.894,0.147c-3.445,-0.164 -2.529,-7.454 -2.548,-7.88Z" style="fill:#17bfee;"/><path d="M148.039,171.513c0.119,11.13 1.455,135.932 -0.374,139.131c-0.554,0.97 -0.91,1.409 -132.166,1.046c-2.026,-0.006 -10.544,1.364 -10.659,-3.207c-0.127,-5.062 0.161,-110.625 -0.126,-136.983c-0.041,-3.755 2.147,-3.182 40.785,-3.182c100.533,-0 101.87,-0.394 102.42,2.092c0.08,0.361 0.039,0.742 0.119,1.103Z" style="fill:#40b871;"/><path d="M331.969,337.508c0.457,-3.172 -0.439,-3.786 1.614,-4.752c1.405,-0.661 63.401,-0.666 68.915,-0.667c70.865,-0.005 71.109,0.506 71.964,1.439c0.783,0.854 0.762,1.082 0.762,116.972c0,21.937 1.218,25.213 -4.715,25.282c-63.134,0.741 -121.45,0.124 -132.011,0.013c-9.211,-0.097 -6.82,-5.384 -6.807,-16.294c0.133,-112.337 0.41,-112.234 0.278,-121.993Z" style="fill:#a9dff8;"/><path d="M331.947,172.511c0.452,-2.832 0.325,-2.869 0.488,-3.055c1.379,-1.578 1.922,-0.724 131.064,-1.104c8.105,-0.024 11.637,-1.996 11.64,6.148c0.043,135.037 -0.189,135.03 -0.654,135.991c-0.609,1.257 -1.129,1.14 -83.985,1.14c-56.46,0 -57.622,0.478 -58.525,-2.264c-0.506,-1.535 -0.212,-118.841 -0.028,-136.856Z" style="fill:#ccdd3b;"/><path d="M400.515,358.031c54.719,2.669 49.638,59.969 31.92,77.403c-16.729,16.46 -46.041,14.409 -63.942,14.178c-5.813,-0.075 -4.608,-3.196 -4.608,-27.112c-0,-63.032 -0.164,-63.746 1.475,-64.348c1.179,-0.433 2.865,-0.8 35.155,-0.121Z" style="fill:#fdfdfd;"/><path d="M431.493,29.034c0.797,-0.025 8.947,-0.281 9.961,-0.116c3.074,0.5 2.806,2.036 2.839,63.583c0.013,25.009 1.276,27.999 -4.782,28.189c-23.863,0.749 -24.356,0.102 -25.598,-1.531c-1.657,-2.179 -29.608,-64.903 -30.689,-67.53c-3.578,-8.695 -2.561,5.905 -2.564,6.872c-0.2,59.493 0.816,60.206 -1.348,61.677c-1.501,1.02 -14.207,0.11 -14.709,-0.023c-2.346,-0.623 -2.322,-1.798 -1.798,-81.652c0.036,-5.47 -2.387,-9.667 7.696,-9.574c18.821,0.173 20.819,-0.63 22.808,2.687c2.514,4.193 26.272,58.142 30.414,67.778c1.585,3.688 2.627,0.609 2.625,0.078c-0.112,-26.495 -0.419,-26.419 -0.419,-52.971c-0,-13.95 -1.714,-17.071 5.567,-17.466Z" style="fill:#fdfdfc;"/><path d="M431.496,284.968c-9.819,-0.057 -12.61,1.595 -15.232,-5.376c-4.5,-11.963 -7.448,-22.232 -11.222,-27.734c-3.149,-4.59 -13.994,-5.26 -16.532,-4.331c-4.172,1.527 -1.063,32.917 -2.363,35.789c-1.38,3.048 -16.981,1.509 -17.68,1.301c-1.753,-0.52 -2.629,-1.204 -2.319,-54.119c0.208,-35.477 -0.143,-37.322 3.35,-37.333c34.373,-0.102 64.097,-2.19 65.334,22.307c1.24,24.534 -24.414,21.784 -15.55,26.416c3.218,1.682 7.262,3.795 20.302,40.591c1.169,3.298 -3.598,2.594 -8.087,2.489Z" style="fill:#fdfdfb;"/><path d="M230.524,357.912c16.353,-0.144 22.017,-0.563 23.581,0.983c1.48,1.462 33.996,88.189 33.983,88.643c-0.106,3.659 -18.156,1.706 -18.495,1.617c-4.852,-1.271 -7.015,-20.365 -11.242,-22.265c-1.125,-0.506 -21.566,-0.456 -33.846,-0.133c-5.52,0.146 -5.295,5.484 -9.978,17.754c-2.246,5.884 -3.884,5.117 -19.019,4.87c-4.265,-0.07 -1.879,-3.029 16.279,-50.771c14.651,-38.523 14.44,-39.709 18.737,-40.697Z" style="fill:#fcfdfc;"/><path d="M57.965,265.501c0.071,10.791 0.966,19.304 -3.444,19.394c-13.663,0.28 -17.182,1.154 -17.238,-4.392c-0.069,-6.799 -0.817,-80.172 0.251,-84.996c0.724,-3.271 20.562,-4.114 20.573,1.005c0.033,14.495 -0.364,14.43 -0.265,28.988c0.003,0.422 0.048,7.057 2.384,4.704c0.847,-0.853 9.811,-12.758 23.885,-29.033c3.712,-4.293 5.1,-7.782 10.385,-7.916c18.284,-0.463 19.868,0.663 18.712,2.09c-6.845,8.449 -37.029,38.745 -35.45,42.057c1.517,3.181 39.392,44.412 38.589,47.04c-0.397,1.301 -21.423,1.914 -24.703,-1.092c-6.518,-5.972 -31.035,-40.395 -33.235,-38.973c-0.773,0.5 -0.552,7.599 -0.443,21.124Z" style="fill:#fcfdfc;"/><path d="M237.497,271.034c19.33,-0.336 24.7,-0.089 27.052,0.12c4.442,0.395 3.377,6.744 3.224,11.371c-0.145,4.388 -2.739,2.084 -41.269,2.366c-16.297,0.119 -19.507,1.576 -19.592,-5.392c-0.08,-6.559 -0.587,-48.082 0.014,-81.999c0.083,-4.706 3.339,-4.154 13.572,-4.176c44.222,-0.092 44.602,-0.267 45.955,1.21c0.799,0.872 0.592,11.121 0.132,12.024c-1.262,2.479 -34.235,0.518 -38.141,1.778c-2.892,0.933 -2.135,18.509 -0.965,21.172c1.685,3.836 24.134,0.679 34.036,1.857c6.002,0.714 2.656,12.721 2.566,12.885c-1.584,2.891 -30.893,0.041 -35.726,1.916c-1.52,0.59 -1.753,1.052 -1.428,20.333c0.073,4.347 1.722,4.492 10.569,4.533Z" style="fill:#fdfdfb;"/><path d="M75.462,357.049c2.327,-0.135 20.329,-1.18 29.027,2.473c4.452,1.87 2.574,15.863 -1.899,14.654c-49.615,-13.418 -55.666,35.399 -40.046,51.281c21.405,21.765 42.582,0.548 43.679,10.082c0.872,7.578 2.834,12.508 -9.789,14.479c-77.205,12.059 -83.067,-84.697 -20.973,-92.969Z" style="fill:#fcfcfc;"/><path d="M87.969,59.5c0.104,58.152 1.262,60.725 -3.455,61.139c-16.48,1.447 -16.637,-0.84 -16.729,-2.186c-1.309,-19.175 0.983,-69.601 -1.361,-71.86c-2.948,-2.841 -25.812,1.244 -27.119,-3.009c-0.486,-1.584 -1.541,-13.207 1.229,-13.961c3.07,-0.836 73.434,-0.879 74.84,0.06c1.479,0.988 2.758,14.662 -0.965,15.467c-4.299,0.929 -19.47,-0.019 -23.856,0.657c-3.037,0.468 -2.373,6.172 -2.585,13.694Z" style="fill:#fdfcfb;"/><path d="M392.489,371.968c2.134,0.142 22.645,-0.413 28.717,18.622c1.647,5.162 6.859,35.597 -18.717,42.874c-16.393,4.664 -17.361,0.338 -17.67,-1.044c-0.003,-0.012 -2.277,-58.941 1.543,-60.247c0.936,-0.32 0.873,-0.169 6.127,-0.204Z" style="fill:#a9dff9;"/><path d="M245.501,29.077c6.333,0.546 4.667,3.049 4.677,9.423c0.011,6.396 0.128,77.248 -0.056,79.953c-0.08,1.183 -0.202,2.965 -14.634,2.333c-6.618,-0.29 -5.632,-2.65 -5.632,-9.286c-0.002,-80.782 0.081,-81.006 0.918,-81.644c1.383,-1.054 8.567,-0.765 14.727,-0.779Z" style="fill:#fefdfc;"/><path d="M398.484,233.057c-4.806,0.081 -10.953,1.36 -11.811,-2.597c-0.073,-0.337 -2.033,-20.952 1.631,-22.404c6.466,-2.562 32.701,-0.83 24.382,17.53c-3.26,7.193 -13.351,7.34 -14.201,7.471Z" style="fill:#ccdc3a;"/><path d="M228.541,412.051c-1.526,-0.478 -2.197,0.121 -2.313,-1.528c-0.178,-2.534 11.622,-32.994 12.721,-35.83c0.985,-2.542 2.332,-1.594 3.225,0.927c10.699,30.195 10.881,30.13 11.53,32.838c1.208,5.046 -2.686,3.886 -25.162,3.593Z" style="fill:#62c4ed;"/></g></svg>